<?xml version="1.0" encoding="utf-8"?>
<!-- Generator: Adobe Illustrator 25.2.1, SVG Export Plug-In . SVG Version: 6.00 Build 0)  -->
<svg version="1.1" id="Layer_1" xmlns="http://www.w3.org/2000/svg" xmlns:xlink="http://www.w3.org/1999/xlink" x="0px" y="0px"
	 viewBox="0 0 764 152" style="enable-background:new 0 0 764 152;" xml:space="preserve">
<style type="text/css">
	.st0{fill:url(#SVGID_1_);}
	.st1{fill:url(#SVGID_2_);}
	.st2{fill:none;}
	.st3{fill:url(#SVGID_3_);}
	.st4{fill:url(#SVGID_4_);}
	.st5{fill:#4D4D4D;}
</style>
<linearGradient id="SVGID_1_" gradientUnits="userSpaceOnUse" x1="52.4524" y1="74.1123" x2="72.7964" y2="38.8755" gradientTransform="matrix(1 0 0 -1 0 154)">
	<stop  offset="0" style="stop-color:#13B6A4"/>
	<stop  offset="1" style="stop-color:#D2DE33"/>
</linearGradient>
<polygon class="st0" points="57.5,100.8 77.6,112.4 81.4,94 73.7,89.5 54.7,78.6 36.9,88.9 "/>
<linearGradient id="SVGID_2_" gradientUnits="userSpaceOnUse" x1="72.5724" y1="78.9525" x2="49.9176" y2="101.6075" gradientTransform="matrix(1 0 0 -1 0 154)">
	<stop  offset="0" style="stop-color:#13B6A4"/>
	<stop  offset="1" style="stop-color:#D2DE33"/>
</linearGradient>
<polygon class="st1" points="73.7,67.6 88.7,58.9 92.8,39.4 57.5,59.8 22,80.3 36.9,88.9 54.7,78.6 54.7,78.6 "/>
<polygon class="st2" points="687.6,70.2 696.3,75.3 696.3,75.2 "/>
<linearGradient id="SVGID_3_" gradientUnits="userSpaceOnUse" x1="705.61" y1="61.13" x2="652.19" y2="61.13" gradientTransform="matrix(1 0 0 -1 0 154)">
	<stop  offset="0" style="stop-color:#13B6A4"/>
	<stop  offset="1" style="stop-color:#D2DE33"/>
</linearGradient>
<polygon class="st3" points="671.1,83.9 656.4,92.4 652.2,112.7 652.4,112.8 687.9,92.3 705.6,82.1 690,73 "/>
<linearGradient id="SVGID_4_" gradientUnits="userSpaceOnUse" x1="663.68" y1="93.225" x2="723.41" y2="93.225" gradientTransform="matrix(1 0 0 -1 0 154)">
	<stop  offset="0" style="stop-color:#13B6A4"/>
	<stop  offset="1" style="stop-color:#D2DE33"/>
</linearGradient>
<polygon class="st4" points="687.9,51.3 667.5,39.5 663.7,57.7 671.1,62 681.4,67.9 668.3,60.2 681.4,67.9 690.1,72.9 690,73 
	705.6,82.1 723.4,71.8 "/>
<g>
	<path class="st5" d="M123.9,76.2h-0.2l-3.7,35.5h-14.4l-7.4-66.6h10.2l5.5,52.5h0.2l4.9-52.5h10.1l5.1,52.9h0.2l5.3-52.9h9.1
		l-7.4,66.6h-13.9L123.9,76.2z"/>
	<path class="st5" d="M164.6,73.2h14.4v9.5h-14.4v19.5h18.1v9.5h-28.5V45.2h28.5v9.5h-18.1V73.2z"/>
	<path class="st5" d="M220.4,60.5v2.4c0,6.8-2.1,11.1-6.8,13.3v0.2c5.6,2.2,7.8,7.1,7.8,14.2v5.4c0,10.3-5.4,15.8-15.9,15.8h-16.4
		V45.2h15.8C215.7,45.2,220.4,50.2,220.4,60.5z M199.6,54.7v17.6h4.1c3.9,0,6.3-1.7,6.3-7v-3.7c0-4.8-1.6-6.8-5.3-6.8H199.6z
		 M199.6,81.8v20.4h6c3.5,0,5.4-1.6,5.4-6.6v-5.8c0-6.2-2-8.1-6.8-8.1H199.6z"/>
	<path class="st5" d="M242.4,45.2H259c10.5,0,15.6,5.8,15.6,16.4v33.7c0,10.6-5.1,16.4-15.6,16.4h-16.5V45.2z M252.9,54.7v47.5h5.9
		c3.3,0,5.3-1.7,5.3-6.5V61.1c0-4.8-2-6.5-5.3-6.5H252.9z"/>
	<path class="st5" d="M291.7,73.2H306v9.5h-14.4v19.5h18.1v9.5h-28.5V45.2h28.5v9.5h-18.1V73.2z"/>
	<path class="st5" d="M331.9,99.4h0.2l7.9-54.3h9.6l-10.3,66.6h-15.6l-10.3-66.6H324L331.9,99.4z"/>
	<path class="st5" d="M364.9,73.2h14.4v9.5h-14.4v19.5H383v9.5h-28.5V45.2H383v9.5h-18.1V73.2z"/>
	<path class="st5" d="M389.4,45.2h10.5v57h17.2v9.5h-27.7V45.2z"/>
	<path class="st5" d="M420.8,61.1c0-10.6,5.6-16.7,15.9-16.7s15.9,6.1,15.9,16.7v34.6c0,10.6-5.6,16.7-15.9,16.7
		s-15.9-6.1-15.9-16.7V61.1z M431.2,96.4c0,4.8,2.1,6.6,5.4,6.6c3.3,0,5.4-1.8,5.4-6.6V60.5c0-4.8-2.1-6.6-5.4-6.6
		c-3.3,0-5.4,1.8-5.4,6.6V96.4z"/>
	<path class="st5" d="M490.3,61.6v8.7c0,10.6-5.1,16.4-15.6,16.4h-4.9v25h-10.5V45.2h15.4C485.2,45.2,490.3,51,490.3,61.6z
		 M469.8,54.7v22.5h4.9c3.3,0,5.1-1.5,5.1-6.3v-10c0-4.8-1.8-6.3-5.1-6.3H469.8z"/>
	<path class="st5" d="M517.2,92.4h0.2l7-47.3H539v66.6h-9.9V64h-0.2l-7,47.7H512l-7.6-47.1h-0.2v47.1H495V45.2h14.5L517.2,92.4z"/>
	<path class="st5" d="M557,73.2h14.4v9.5H557v19.5h18.1v9.5h-28.5V45.2h28.5v9.5H557V73.2z"/>
	<path class="st5" d="M591.1,63.5h-0.2v48.2h-9.4V45.2h13.1L605.1,85h0.2V45.2h9.3v66.6h-10.7L591.1,63.5z"/>
	<path class="st5" d="M619.1,45.2h32.3v9.5h-10.9v57H630v-57h-10.9V45.2z"/>
</g>
</svg>
